<?xml version="1.0" ?>

<!-- Uploaded to: SVG Repo, www.svgrepo.com, Generator: SVG Repo Mixer Tools -->
<svg fill="#000000" width="800px" height="800px" viewBox="0 0 512 512" version="1.1" xml:space="preserve" xmlns="http://www.w3.org/2000/svg" xmlns:xlink="http://www.w3.org/1999/xlink">

<g id="jewel_ring-ring-diamond-valentine-jewellery">

<path d="M311.304,146.57l19.392-19.391c4.319-4.317,6.651-9.9,6.945-15.585c0-0.028,0.016-0.051,0.016-0.079   c0-0.04-0.022-0.073-0.023-0.113c0.244-5.588-1.465-11.263-5.223-15.918L319.109,78.82c-4.064-5.039-9.196-8.885-14.914-11.413   c-0.092-0.048-0.188-0.072-0.282-0.116C299.025,65.176,293.726,64,288.242,64h-64.48c-5.481,0-10.78,1.175-15.667,3.291   c-0.1,0.047-0.202,0.072-0.3,0.124c-5.717,2.532-10.85,6.383-14.923,11.437l-13.258,16.602c-3.767,4.667-5.48,10.343-5.243,15.931   c-0.001,0.046-0.026,0.085-0.026,0.131c0,0.032,0.018,0.059,0.019,0.091c0.294,5.683,2.627,11.26,6.942,15.573l19.392,19.391   C144.153,168.662,104,223.667,104,288c0,83.84,68.16,152,152,152c83.84,0,152-68.16,152-152   C408,223.667,367.847,168.662,311.304,146.57z M264,119.516h51.734L264,171.246V119.516z M230.677,80h50.646L256,101.102   L230.677,80z M248,171.246l-51.734-51.73H248V171.246z M318.349,103.516h-40.248l23.245-19.369   c1.941,1.313,3.768,2.812,5.283,4.689L318.349,103.516z M205.352,88.867c1.524-1.891,3.358-3.398,5.307-4.717l23.241,19.365H193.65   L205.352,88.867z M256,392c-57.36,0-104-46.64-104-104c0-51.779,38.046-94.697,87.635-102.583C244.033,189.58,249.939,192,256,192   s11.967-2.42,16.365-6.583C321.955,193.303,360,236.221,360,288C360,345.36,313.36,392,256,392z"/>

</g>

<g id="Layer_1"/>

</svg>